g Body_01
v -0.02 0 0.007
vn 0 -1 0
vt 0.0128176 0
v 0.018 0 0.007
vn 0 -1 0
vt 0.987167 0
v 0.0121 0 0.0284
vn 0 -1 0
vt 0.835889 0.995346
v 0.0185 0 0.023
vn 0 -1 0
vt 1 0.744183
v -0.014 0 0.0285
vn 0 -1 0
vt 0.166659 1
v -0.0205 0 0.0235
vn 0 -1 0
vt 0 0.767437
v 0.0121 0.039003 0.0284
vn 0.644871 0 0.764291
vt 1 1
v 0.0121 0 0.0284
vn 0.644871 0 0.764291
vt 1 0
v 0.0185 0 0.023
vn 0.644871 0 0.764291
vt 0 0
v 0.0185 0.039003 0.023
vn 0.644871 0 0.764291
vt 0 1
v 0.0185 0.039003 0.023
vn 0.999512 -0 -0.0312348
vt 1 1
v 0.0185 0 0.023
vn 0.999512 -0 -0.0312348
vt 1 0
v 0.018 0 0.007
vn 0.999512 -0 -0.0312348
vt 0 0
v 0.018 0.039003 0.007
vn 0.999512 -0 -0.0312348
vt 0 1
v 0.018 0.039003 0.007
vn 2.28253e-17 0 -1
vt 0 1
v 0.018 0 0.007
vn 2.28253e-17 0 -1
vt 0 0
v -0.02 0 0.007
vn 2.28253e-17 0 -1
vt 1 0
v -0.02 0.039003 0.007
vn 2.28253e-17 0 -1
vt 1 1
v -0.02 0.039003 0.007
vn -0.999541 -0 -0.0302891
vt 0 1
v -0.02 0 0.007
vn -0.999541 -0 -0.0302891
vt 0 0
v -0.0205 0 0.0235
vn -0.999541 -0 -0.0302891
vt 1 0
v -0.0205 0.039003 0.0235
vn -0.999541 -0 -0.0302891
vt 1 1
v -0.0205 0.039003 0.0235
vn -0.609711 0 0.792624
vt 0 1
v -0.0205 0 0.0235
vn -0.609711 0 0.792624
vt 0 0
v -0.014 0 0.0285
vn -0.609711 0 0.792624
vt 1 0
v -0.014 0.039003 0.0285
vn -0.609711 0 0.792624
vt 1 1
v -0.02 0.039003 0.007
vn -0 1 -0
vt 0.0128176 0
v -0.014 0.039003 0.0285
vn -0 1 -0
vt 0.166659 1
v 0.0121 0.039003 0.0284
vn -0 1 -0
vt 0.835889 0.995346
v 0.018 0.039003 0.007
vn -0 1 -0
vt 0.987167 0
v -0.0205 0.039003 0.0235
vn -0 1 -0
vt 0 0.767437
v 0.0185 0.039003 0.023
vn -0 1 -0
vt 1 0.744183
v -0.014 0.039003 0.0285
vn 0.00383139 0 0.999993
vt 1 1
v -0.014 0 0.0285
vn 0.00383139 0 0.999993
vt 1 0
v 0.0121 0 0.0284
vn 0.00383139 0 0.999993
vt 0 0
v 0.0121 0.039003 0.0284
vn 0.00383139 0 0.999993
vt 0 1
f 1/1/1 2/2/2 3/3/3
f 2/2/2 4/4/4 3/3/3
f 3/3/3 5/5/5 1/1/1
f 5/5/5 6/6/6 1/1/1
f 7/7/7 8/8/8 9/9/9
f 9/9/9 10/10/10 7/7/7
f 11/11/11 12/12/12 13/13/13
f 13/13/13 14/14/14 11/11/11
f 15/15/15 16/16/16 17/17/17
f 17/17/17 18/18/18 15/15/15
f 19/19/19 20/20/20 21/21/21
f 21/21/21 22/22/22 19/19/19
f 23/23/23 24/24/24 25/25/25
f 25/25/25 26/26/26 23/23/23
f 27/27/27 28/28/28 29/29/29
f 29/29/29 30/30/30 27/27/27
f 27/27/27 31/31/31 28/28/28
f 29/29/29 32/32/32 30/30/30
f 33/33/33 34/34/34 35/35/35
f 35/35/35 36/36/36 33/33/33
g Body_02
v -0.01 0.011 0.103532
vn 0 -1 0
vt 0 0.886595
v -0.01 0.011 0.0445
vn 0 -1 0
vt 0 0
v 0.0085 0.011 0.0445
vn 0 -1 0
vt 0.92607 0
v 0.00997681 0.011 0.103532
vn 0 -1 0
vt 1 0.886595
v -1.15969e-05 0.011 0.111081
vn 0 -1 0
vt 0.499992 1
v 0.0085 0.030977 0.0445
vn 0 0 -1
vt 0 1
v 0.0085 0.011 0.0445
vn 0 0 -1
vt 0 0
v -0.01 0.011 0.0445
vn 0 0 -1
vt 1 0
v -0.01 0.030977 0.0445
vn 0 0 -1
vt 1 1
v -0.01 0.030977 0.103532
vn -0 1 -0
vt 0 0.886595
v 0.00997681 0.030977 0.103532
vn -0 1 -0
vt 1 0.886595
v 0.0085 0.030977 0.0445
vn -0 1 -0
vt 0.92607 0
v -0.01 0.030977 0.0445
vn -0 1 -0
vt 0 0
v -1.15969e-05 0.030977 0.111081
vn -0 1 -0
vt 0.499992 1
v -1.15969e-05 0.030977 0.111081
vn 0.602978 0 0.797758
vt 1 1
v -1.15969e-05 0.011 0.111081
vn 0.602978 0 0.797758
vt 1 0
v 0.00997681 0.011 0.103532
vn 0.602978 0 0.797758
vt 0 0
v 0.00997681 0.030977 0.103532
vn 0.602978 0 0.797758
vt 0 1
v -0.01 0.030977 0.0445
vn -1 -0 0
vt 1 1
v -0.01 0.011 0.0445
vn -1 -0 0
vt 1 0
v -0.01 0.011 0.103532
vn -1 -0 0
vt 0 0
v -0.01 0.030977 0.103532
vn -1 -0 0
vt 0 1
v 0.00997681 0.030977 0.103532
vn 0.999687 0 -0.0250094
vt 0 1
v 0.00997681 0.011 0.103532
vn 0.999687 0 -0.0250094
vt 0 0
v 0.0085 0.011 0.0445
vn 0.999687 0 -0.0250094
vt 1 0
v 0.0085 0.030977 0.0445
vn 0.999687 0 -0.0250094
vt 1 1
v -0.01 0.030977 0.103532
vn -0.602978 -0 0.797758
vt 1 1
v -0.01 0.011 0.103532
vn -0.602978 -0 0.797758
vt 1 0
v -1.15969e-05 0.011 0.111081
vn -0.602978 -0 0.797758
vt 0 0
v -1.15969e-05 0.030977 0.111081
vn -0.602978 -0 0.797758
vt 0 1
f 37/37/37 38/38/38 39/39/39
f 40/40/40 41/41/41 37/37/37
f 39/39/39 40/40/40 37/37/37
f 42/42/42 43/43/43 44/44/44
f 44/44/44 45/45/45 42/42/42
f 46/46/46 47/47/47 48/48/48
f 48/48/48 49/49/49 46/46/46
f 46/46/46 50/50/50 47/47/47
f 51/51/51 52/52/52 53/53/53
f 53/53/53 54/54/54 51/51/51
f 55/55/55 56/56/56 57/57/57
f 57/57/57 58/58/58 55/55/55
f 59/59/59 60/60/60 61/61/61
f 61/61/61 62/62/62 59/59/59
f 63/63/63 64/64/64 65/65/65
f 65/65/65 66/66/66 63/63/63
g Body_03
v 0.0121425 0.0331 0.0395
vn -0 1 -0
vt 1 0.689433
v 0.006 0.0331 0.0395
vn -0 1 -0
vt 0.766812 0.689433
v 0.006 0.0331 0.041
vn -0 1 -0
vt 0.766812 0.782605
v 0.0121 0.0331 0.0284
vn -0 1 -0
vt 0.998383 0
v -0.0142 0.0331 0.0395
vn -0 1 -0
vt 0 0.689433
v -0.01 0.0331 0.0445
vn -0 1 -0
vt 0.159426 1
v -0.0075 0.0331 0.041
vn -0 1 -0
vt 0.254337 0.782605
v 0.0085 0.0331 0.0445
vn -0 1 -0
vt 0.861723 1
v -0.014 0.0331 0.0285
vn -0 1 -0
vt 0.00758373 0.00621042
v -0.0075 0.0331 0.0395
vn -0 1 -0
vt 0.254337 0.689433
v -0.0005 0.0331 0.043
vn -0 1 -0
vt 0.520058 0.906828
v 0.006 0.0331 0.041
vn -0.294086 -0 -0.955779
vt 0 1
v 0.006 0.007 0.041
vn -0.294086 -0 -0.955779
vt 0 0
v -0.0005 0.007 0.043
vn -0.294086 -0 -0.955779
vt 1 0
v -0.0005 0.0331 0.043
vn -0.294086 -0 -0.955779
vt 1 1
v -0.0075 0.0331 0.0395
vn -0 -0 1
vt 1 1
v -0.0075 0.007 0.0395
vn -0 -0 1
vt 1 0
v 0.006 0.007 0.0395
vn -0 -0 1
vt 0 0
v 0.006 0.0331 0.0395
vn -0 -0 1
vt 0 1
v 0.0121 0.0331 0.0284
vn -0.00383139 -0 -0.999993
vt 0 1
v 0.0121 0.007 0.0284
vn -0.00383139 -0 -0.999993
vt 0 0
v -0.014 0.007 0.0285
vn -0.00383139 -0 -0.999993
vt 1 0
v -0.014 0.0331 0.0285
vn -0.00383139 -0 -0.999993
vt 1 1
v 0.0121425 0.007 0.0395
vn 0 -1 0
vt 1 0.689433
v 0.0085 0.007 0.0445
vn 0 -1 0
vt 0.861723 1
v 0.006 0.007 0.041
vn 0 -1 0
vt 0.766812 0.782605
v -0.01 0.007 0.0445
vn 0 -1 0
vt 0.159426 1
v -0.0075 0.007 0.041
vn 0 -1 0
vt 0.254337 0.782605
v -0.0005 0.007 0.043
vn 0 -1 0
vt 0.520058 0.906828
v 0.006 0.007 0.0395
vn 0 -1 0
vt 0.766812 0.689433
v -0.0142 0.007 0.0395
vn 0 -1 0
vt 0 0.689433
v -0.0075 0.007 0.0395
vn 0 -1 0
vt 0.254337 0.689433
v -0.014 0.007 0.0285
vn 0 -1 0
vt 0.00758373 0.00621042
v 0.0121 0.007 0.0284
vn 0 -1 0
vt 0.998383 0
v -0.014 0.0331 0.0285
vn -0.999835 -0 -0.0181788
vt 0 1
v -0.014 0.007 0.0285
vn -0.999835 -0 -0.0181788
vt 0 0
v -0.0142 0.007 0.0395
vn -0.999835 -0 -0.0181788
vt 1 0
v -0.0142 0.0331 0.0395
vn -0.999835 -0 -0.0181788
vt 1 1
v -0.0142 0.0331 0.0395
vn -0.765705 0 0.643192
vt 0 1
v -0.0142 0.007 0.0395
vn -0.765705 0 0.643192
vt 0 0
v -0.01 0.007 0.0445
vn -0.765705 0 0.643192
vt 1 0
v -0.01 0.0331 0.0445
vn -0.765705 0 0.643192
vt 1 1
v 0.0085 0.0331 0.0445
vn 0.808262 0 0.588823
vt 1 1
v 0.0085 0.007 0.0445
vn 0.808262 0 0.588823
vt 1 0
v 0.0121425 0.007 0.0395
vn 0.808262 0 0.588823
vt 0 0
v 0.0121425 0.0331 0.0395
vn 0.808262 0 0.588823
vt 0 1
v 0.006 0.0331 0.0395
vn -1 -0 -5.78241e-16
vt 0 1
v 0.006 0.007 0.0395
vn -1 -0 -5.78241e-16
vt 0 0
v 0.006 0.007 0.041
vn -1 -0 -5.78241e-16
vt 1 0
v 0.006 0.0331 0.041
vn -1 -0 -5.78241e-16
vt 1 1
v 0.0121425 0.0331 0.0395
vn 0.999993 -0 -0.00383139
vt 1 1
v 0.0121425 0.007 0.0395
vn 0.999993 -0 -0.00383139
vt 1 0
v 0.0121 0.007 0.0284
vn 0.999993 -0 -0.00383139
vt 0 0
v 0.0121 0.0331 0.0284
vn 0.999993 -0 -0.00383139
vt 0 1
v -0.01 0.0331 0.0445
vn -0 -0 1
vt 1 1
v -0.01 0.007 0.0445
vn -0 -0 1
vt 1 0
v 0.0085 0.007 0.0445
vn -0 -0 1
vt 0 0
v 0.0085 0.0331 0.0445
vn -0 -0 1
vt 0 1
v -0.0005 0.0331 0.043
vn 0.274721 0 -0.961524
vt 0 1
v -0.0005 0.007 0.043
vn 0.274721 0 -0.961524
vt 0 0
v -0.0075 0.007 0.041
vn 0.274721 0 -0.961524
vt 1 0
v -0.0075 0.0331 0.041
vn 0.274721 0 -0.961524
vt 1 1
v -0.0075 0.0331 0.041
vn 1 0 0
vt 1 1
v -0.0075 0.007 0.041
vn 1 0 0
vt 1 0
v -0.0075 0.007 0.0395
vn 1 0 0
vt 0 0
v -0.0075 0.0331 0.0395
vn 1 0 0
vt 0 1
f 67/67/67 68/68/68 69/69/69
f 67/67/67 70/70/70 68/68/68
f 71/71/71 72/72/72 73/73/73
f 69/69/69 74/74/74 67/67/67
f 70/70/70 75/75/75 76/76/76
f 73/73/73 76/76/76 71/71/71
f 72/72/72 74/74/74 77/77/77
f 76/76/76 68/68/68 70/70/70
f 77/77/77 73/73/73 72/72/72
f 76/76/76 75/75/75 71/71/71
f 69/69/69 77/77/77 74/74/74
f 78/78/78 79/79/79 80/80/80
f 80/80/80 81/81/81 78/78/78
f 82/82/82 83/83/83 84/84/84
f 84/84/84 85/85/85 82/82/82
f 86/86/86 87/87/87 88/88/88
f 88/88/88 89/89/89 86/86/86
f 90/90/90 91/91/91 92/92/92
f 93/93/93 94/94/94 95/95/95
f 92/92/92 96/96/96 90/90/90
f 95/95/95 91/91/91 93/93/93
f 97/97/97 98/98/98 94/94/94
f 95/95/95 92/92/92 91/91/91
f 97/97/97 99/99/99 98/98/98
f 94/94/94 93/93/93 97/97/97
f 100/100/100 96/96/96 98/98/98
f 98/98/98 99/99/99 100/100/100
f 96/96/96 100/100/100 90/90/90
f 101/101/101 102/102/102 103/103/103
f 103/103/103 104/104/104 101/101/101
f 105/105/105 106/106/106 107/107/107
f 107/107/107 108/108/108 105/105/105
f 109/109/109 110/110/110 111/111/111
f 111/111/111 112/112/112 109/109/109
f 113/113/113 114/114/114 115/115/115
f 115/115/115 116/116/116 113/113/113
f 117/117/117 118/118/118 119/119/119
f 119/119/119 120/120/120 117/117/117
f 121/121/121 122/122/122 123/123/123
f 123/123/123 124/124/124 121/121/121
f 125/125/125 126/126/126 127/127/127
f 127/127/127 128/128/128 125/125/125
f 129/129/129 130/130/130 131/131/131
f 131/131/131 132/132/132 129/129/129
